<svg width="389" height="381" viewBox="0 0 389 381" fill="none" xmlns="http://www.w3.org/2000/svg">
<path d="M0 78.7631L204.121 2.26522C226.662 -6.18235 250.805 10.1188 251.393 34.1834L253.509 120.684C254.63 166.514 206.139 196.717 165.5 175.5L0 78.7631Z" fill="url(#paint0_linear_22_451)"/>
<path d="M0.00585938 79.642L281.265 33.0708C304.415 29.2376 325.473 47.0949 325.473 70.5604L325.473 167.383C325.473 218.022 272.105 250.894 226.88 228.112L114.5 171.5L0.00585938 79.642Z" fill="url(#paint1_linear_22_451)"/>
<path d="M321.006 78.751C358.561 78.751 389.006 109.196 389.006 146.751V312.751C389.006 350.306 358.561 380.751 321.006 380.751H0.00585938V375.141L2.99805 341.57C7.98674 285.599 49.7269 239.844 105.006 229.751C49.7269 219.658 7.98674 173.903 2.99805 117.932L0.00585938 84.3604V78.751H321.006Z" fill="url(#paint2_linear_22_451)"/>
<path d="M238.756 106.001L239.539 112.137C247.322 173.147 295.359 221.185 356.37 228.968L362.506 229.751L356.37 230.534C295.359 238.317 247.322 286.354 239.539 347.365L238.756 353.501L237.973 347.365C230.19 286.354 182.152 238.317 121.142 230.534L115.006 229.751L121.142 228.968C182.152 221.185 230.19 173.147 237.973 112.137L238.756 106.001Z" fill="white"/>
<defs>
<linearGradient id="paint0_linear_22_451" x1="302.903" y1="125.654" x2="52.7124" y2="219.417" gradientUnits="userSpaceOnUse">
<stop stop-color="#5570FC"/>
<stop offset="1" stop-color="#3454F9"/>
</linearGradient>
<linearGradient id="paint1_linear_22_451" x1="350" y1="173.88" x2="24.5332" y2="227.771" gradientUnits="userSpaceOnUse">
<stop stop-color="#1C38A2"/>
<stop offset="1" stop-color="#0B0921"/>
</linearGradient>
<linearGradient id="paint2_linear_22_451" x1="389.006" y1="256.251" x2="29.9736" y2="256.251" gradientUnits="userSpaceOnUse">
<stop stop-color="#5570FC"/>
<stop offset="1" stop-color="#3454F9"/>
</linearGradient>
</defs>
</svg>
