<svg width="1236" height="381" viewBox="0 0 1236 381" fill="none" xmlns="http://www.w3.org/2000/svg">
<path d="M0 78.7631L204.121 2.26522C226.662 -6.18235 250.805 10.1188 251.393 34.1834L253.509 120.684C254.63 166.514 206.139 196.717 165.5 175.5L0 78.7631Z" fill="url(#paint0_linear_22_450)"/>
<path d="M0.00585938 79.642L281.265 33.0708C304.415 29.2376 325.473 47.0949 325.473 70.5604L325.473 167.383C325.473 218.022 272.105 250.894 226.88 228.112L114.5 171.5L0.00585938 79.642Z" fill="url(#paint1_linear_22_450)"/>
<path d="M321.006 78.751C358.561 78.751 389.006 109.196 389.006 146.751V312.751C389.006 350.306 358.561 380.751 321.006 380.751H0.00585938V375.141L2.99805 341.57C7.98674 285.599 49.7269 239.844 105.006 229.751C49.7269 219.658 7.98674 173.903 2.99805 117.932L0.00585938 84.3604V78.751H321.006Z" fill="url(#paint2_linear_22_450)"/>
<path d="M238.756 106.001L239.539 112.137C247.322 173.147 295.359 221.185 356.37 228.968L362.506 229.751L356.37 230.534C295.359 238.317 247.322 286.354 239.539 347.365L238.756 353.501L237.973 347.365C230.19 286.354 182.152 238.317 121.142 230.534L115.006 229.751L121.142 228.968C182.152 221.185 230.19 173.147 237.973 112.137L238.756 106.001Z" fill="white"/>
<path d="M1230.93 313.427C1227.25 314.809 1223.25 315.96 1218.95 316.882C1214.65 317.803 1210.2 318.264 1205.59 318.264C1193.46 318.264 1184.25 314.809 1177.95 307.899C1171.66 300.988 1168.51 291.314 1168.51 278.876V230.966H1163.67C1159.53 230.966 1155.92 229.737 1152.85 227.28C1149.93 224.67 1148.47 220.984 1148.47 216.224C1148.47 212.078 1149.62 208.623 1151.92 205.859C1154.23 202.941 1157.61 200.484 1162.06 198.488L1203.06 178.679V200.331H1235.54V230.966H1203.06V272.657C1203.06 278.338 1204.29 282.331 1206.75 284.634C1209.2 286.938 1212.66 288.089 1217.11 288.089C1219.41 288.089 1221.72 287.859 1224.02 287.398C1226.32 286.938 1228.63 286.324 1230.93 285.556V313.427Z" fill="white"/>
<path d="M1089.75 318.264C1069.32 318.264 1053.74 313.197 1042.99 303.062C1032.24 292.927 1026.86 278.646 1026.86 260.219C1026.86 247.474 1029.4 236.417 1034.47 227.05C1039.53 217.683 1046.67 210.466 1055.89 205.398C1065.25 200.177 1076.16 197.567 1088.59 197.567C1099.8 197.567 1109.25 199.486 1116.93 203.325C1124.6 207.011 1130.44 211.925 1134.43 218.067C1138.42 224.209 1140.42 230.889 1140.42 238.106C1140.42 245.017 1138.66 250.775 1135.12 255.382C1131.74 259.989 1127.06 263.52 1121.07 265.977C1115.08 268.434 1108.25 269.97 1100.57 270.584C1093.05 271.045 1085.06 270.738 1076.62 269.663C1068.17 268.588 1059.8 266.822 1051.51 264.365V243.635C1059.5 245.631 1066.71 247.013 1073.16 247.781C1079.77 248.548 1085.45 248.625 1090.21 248.011C1095.12 247.397 1098.88 246.092 1101.49 244.095C1104.1 242.099 1105.41 239.412 1105.41 236.033C1105.41 232.348 1103.87 229.2 1100.8 226.59C1097.89 223.979 1093.66 222.674 1088.13 222.674C1083.22 222.674 1078.77 223.979 1074.77 226.59C1070.94 229.046 1067.86 232.962 1065.56 238.337C1063.26 243.558 1062.11 250.314 1062.11 258.607C1062.11 266.285 1063.26 272.657 1065.56 277.725C1067.86 282.792 1071.4 286.554 1076.16 289.011C1080.92 291.315 1087.29 292.466 1095.27 292.466C1102.49 292.466 1109.48 291.699 1116.24 290.163C1123.15 288.474 1129.75 286.094 1136.04 283.022V306.978C1130.52 310.202 1123.76 312.89 1115.77 315.039C1107.94 317.189 1099.27 318.264 1089.75 318.264Z" fill="white"/>
<path d="M950.165 364.332C939.877 364.332 931.124 363.564 923.906 362.028C916.843 360.646 911.238 358.803 907.092 356.5C903.713 354.657 901.103 352.584 899.26 350.281C897.571 347.978 896.727 345.29 896.727 342.219C896.727 338.534 897.878 335.616 900.182 333.466C902.485 331.47 905.71 330.472 909.856 330.472C912.773 330.472 915.691 330.933 918.609 331.854C921.526 332.775 924.674 333.85 928.053 335.079C931.431 336.307 935.347 337.382 939.8 338.303C944.407 339.225 949.704 339.685 955.693 339.685C963.525 339.685 969.59 338.611 973.89 336.461C978.343 334.464 980.57 331.316 980.57 327.017C980.57 324.099 979.341 321.719 976.884 319.876C974.427 318.034 969.59 317.112 962.373 317.112H932.429C923.215 317.112 915.691 316.037 909.856 313.888C904.174 311.738 899.951 308.743 897.187 304.904C894.423 301.065 893.041 296.612 893.041 291.545C893.041 283.867 895.652 277.571 900.873 272.657C906.094 267.743 913.157 264.902 922.064 264.134L949.013 271.275C942.717 271.275 937.804 271.659 934.272 272.427C930.893 273.194 928.513 274.269 927.131 275.651C925.749 276.88 925.058 278.339 925.058 280.028C925.058 282.331 926.056 284.02 928.053 285.095C930.202 286.017 933.734 286.477 938.648 286.477H967.901C983.103 286.477 994.774 289.318 1002.91 295C1011.2 300.528 1015.35 309.665 1015.35 322.41C1015.35 336.23 1010.13 346.672 999.688 353.736C989.246 360.8 972.738 364.332 950.165 364.332ZM949.013 271.275C932.275 271.275 919.146 268.281 909.625 262.292C900.258 256.303 895.575 247.243 895.575 235.112C895.575 226.82 897.801 219.909 902.255 214.381C906.861 208.7 913.464 204.477 922.064 201.713C930.663 198.949 940.875 197.567 952.699 197.567L986.098 209.775C989.476 211.157 992.471 213.153 995.081 215.763C997.845 218.374 999.995 221.445 1001.53 224.977C1003.22 228.509 1004.06 232.655 1004.06 237.415C1004.06 244.786 1001.91 251.005 997.615 256.073C993.469 261.14 987.326 264.979 979.188 267.59C971.049 270.046 960.991 271.275 949.013 271.275ZM950.626 251.696C956.307 251.696 960.914 250.161 964.446 247.089C967.978 244.018 969.744 239.719 969.744 234.19C969.744 228.662 968.055 224.439 964.676 221.522C961.298 218.451 956.768 216.915 951.086 216.915C945.251 216.915 940.568 218.451 937.036 221.522C933.657 224.593 931.968 228.969 931.968 234.651C931.968 240.026 933.657 244.249 937.036 247.32C940.414 250.237 944.944 251.696 950.626 251.696ZM1019.5 229.584C1013.35 229.584 1007.52 229.277 1001.99 228.662C996.463 227.895 990.397 227.204 983.794 226.589L952.699 197.567C964.062 197.567 975.195 198.027 986.098 198.949C997.154 199.87 1008.29 200.331 1019.5 200.331V229.584Z" fill="white"/>
<path d="M872.658 149.656V315.5H837.877V149.656H872.658ZM842.944 289.241C839.412 298.455 834.115 305.595 827.051 310.663C820.141 315.73 811.925 318.264 802.405 318.264C793.191 318.264 784.822 315.884 777.298 311.123C769.773 306.21 763.861 299.299 759.562 290.393C755.262 281.333 753.112 270.584 753.112 258.146C753.112 245.861 755.262 235.189 759.562 226.129C763.861 217.069 769.85 210.082 777.528 205.168C785.206 200.1 794.036 197.567 804.017 197.567C813.691 197.567 821.676 199.87 827.972 204.477C834.422 208.93 838.798 215.226 841.102 223.365L837.877 251.466C837.877 246.552 836.879 242.252 834.882 238.567C832.886 234.881 830.199 232.041 826.821 230.044C823.442 227.895 819.45 226.82 814.843 226.82C809.929 226.82 805.553 228.125 801.714 230.735C798.028 233.346 795.111 236.955 792.961 241.561C790.811 246.015 789.736 251.389 789.736 257.685C789.736 263.674 790.811 268.972 792.961 273.578C795.111 278.032 798.028 281.487 801.714 283.944C805.399 286.401 809.776 287.629 814.843 287.629C821.753 287.629 827.281 285.326 831.427 280.719C835.727 276.112 837.877 270.123 837.877 262.752L842.944 289.241Z" fill="white"/>
<path d="M680.94 318.264C662.666 318.264 648.923 313.734 639.709 304.674C630.495 295.46 625.889 282.177 625.889 264.825V200.331H660.439V264.595C660.439 272.273 662.205 278.031 665.737 281.87C669.423 285.556 674.49 287.398 680.94 287.398C687.696 287.398 692.84 285.556 696.372 281.87C699.904 278.031 701.67 272.273 701.67 264.595V200.331H736.221V264.825C736.221 282.177 731.614 295.46 722.4 304.674C713.187 313.734 699.367 318.264 680.94 318.264Z" fill="white"/>
<path d="M501.45 315.5V284.635H543.602C552.354 284.635 558.727 283.253 562.72 280.489C566.866 277.724 568.939 273.502 568.939 267.82C568.939 262.138 566.866 258.069 562.72 255.612C558.727 253.155 552.354 251.927 543.602 251.927H501.45V231.887H546.366C554.351 231.887 562.029 232.425 569.399 233.499C576.924 234.574 583.604 236.494 589.439 239.258C595.274 242.022 599.881 246.015 603.259 251.236C606.791 256.303 608.557 262.906 608.557 271.045C608.557 281.487 605.87 289.932 600.495 296.382C595.274 302.831 587.673 307.668 577.692 310.893C567.864 313.964 555.963 315.5 541.989 315.5H501.45ZM469.433 315.5V158.87H506.978V315.5H469.433ZM490.624 241.331V221.983H538.534C547.133 221.983 553.429 220.601 557.422 217.836C561.568 215.072 563.641 210.85 563.641 205.168C563.641 199.64 561.568 195.724 557.422 193.421C553.429 190.964 547.133 189.735 538.534 189.735H490.624V158.87H536C557.192 158.87 573.469 162.248 584.832 169.005C596.349 175.608 602.108 186.51 602.108 201.713C602.108 208.623 600.956 214.458 598.652 219.219C596.349 223.979 593.124 227.818 588.978 230.735C584.986 233.653 580.379 235.88 575.158 237.415C569.937 238.951 564.332 240.026 558.343 240.64C552.354 241.101 546.366 241.331 540.377 241.331H490.624Z" fill="white"/>
<defs>
<linearGradient id="paint0_linear_22_450" x1="302.903" y1="125.654" x2="52.7124" y2="219.417" gradientUnits="userSpaceOnUse">
<stop stop-color="#5570FC"/>
<stop offset="1" stop-color="#3454F9"/>
</linearGradient>
<linearGradient id="paint1_linear_22_450" x1="350" y1="173.88" x2="24.5332" y2="227.771" gradientUnits="userSpaceOnUse">
<stop stop-color="#1C38A2"/>
<stop offset="1" stop-color="#0B0921"/>
</linearGradient>
<linearGradient id="paint2_linear_22_450" x1="389.006" y1="256.251" x2="29.9736" y2="256.251" gradientUnits="userSpaceOnUse">
<stop stop-color="#5570FC"/>
<stop offset="1" stop-color="#3454F9"/>
</linearGradient>
</defs>
</svg>
